<?xml version="1.0" encoding="UTF-8"?>
<svg version="1.1" xmlns="http://www.w3.org/2000/svg" width="513" height="486">
<path d="M0 0 C0.88790652 3.96765616 1.12270113 7.76609994 1.11352539 11.82177734 C1.11344986 12.94248627 1.11337433 14.06319519 1.11329651 15.21786499 C1.10813522 16.41182892 1.10297394 17.60579285 1.09765625 18.8359375 C1.09553383 20.68767075 1.09553383 20.68767075 1.09336853 22.57681274 C1.08778272 26.50956675 1.07523275 30.44226328 1.0625 34.375 C1.05691912 37.04557208 1.05292058 39.71614363 1.04882812 42.38671875 C1.03781792 48.92449869 1.02109385 55.46224524 1 62 C-3.03171095 63.72267182 -5.92675801 64.21826757 -10.33203125 64.125 C-12.14864258 64.10179688 -12.14864258 64.10179688 -14.00195312 64.078125 C-16.53060389 64.02628183 -19.0592498 63.97420073 -21.58789062 63.921875 C-32.37417731 63.38664994 -32.37417731 63.38664994 -41.875 67.625 C-42.431875 68.305625 -42.431875 68.305625 -43 69 C-43.66 69 -44.32 69 -45 69 C-48.8756363 76.54818249 -51.45512808 83.52980812 -49 92 C-46.2166456 97.25041853 -42.4034487 101.45120344 -37 104 C-31.83039421 105.07815308 -26.61335277 105.02396288 -21.35546875 104.9453125 C-20.5449707 104.93532227 -19.73447266 104.92533203 -18.89941406 104.91503906 C-17.27212587 104.88857384 -15.64500853 104.84652534 -14.01855469 104.78808594 C-11.74609375 104.7421875 -11.74609375 104.7421875 -8 105 C-5.53326343 108.70010486 -5.7552279 110.56383758 -5.76953125 114.9765625 C-5.76998947 115.66124603 -5.77044769 116.34592957 -5.7709198 117.05136108 C-5.77393975 118.50219451 -5.78181843 119.95302477 -5.79418945 121.40380859 C-5.81226217 123.59614921 -5.81470018 125.78806193 -5.81445312 127.98046875 C-5.83921724 135.09992465 -6.20960221 141.88641993 -7 149 C6.86 148.67 20.72 148.34 35 148 C35 142.06 35 136.12 35 130 C35.66730767 122.14059856 36.34183714 117.2211438 42.03125 111.625 C48.233798 106.50543657 53.64733372 105.23207055 61.734375 105.4765625 C67.79520706 106.44803558 72.7966018 109.4180444 76.7734375 114.078125 C78 116 78 116 78 118 C78.80497925 117.82609741 78.80497925 117.82609741 79.6262207 117.64868164 C115.36801844 110.05558925 150.62528933 111.56252833 182.0703125 131.92578125 C186.931547 135.36753528 191.49422563 139.10925715 196 143 C196.54366211 143.43650879 197.08732422 143.87301758 197.64746094 144.32275391 C202.29954824 148.12234428 205.91042589 152.32336894 209.5 157.125 C210.06533447 157.8763623 210.63066895 158.62772461 211.21313477 159.40185547 C224.58258537 177.40858781 233.92134574 199.20377634 234.08496094 221.94628906 C234.2693955 231.69433046 236.8790201 238.66170435 242 247 C242.4439209 247.73605469 242.8878418 248.47210938 243.34521484 249.23046875 C246.54153729 254.51706749 249.81476277 259.75323761 253.10546875 264.98144531 C256.22408455 269.95033265 259.31144732 274.9383629 262.39138794 279.93127441 C263.4059889 281.57398142 264.42449062 283.21427717 265.44311523 284.85449219 C268.51164822 289.82351837 271.52866348 294.81829455 274.41015625 299.8984375 C274.88718994 300.73810059 275.36422363 301.57776367 275.85571289 302.44287109 C277.15190155 305.33945314 277.71694882 307.84245482 278 311 C275.86956522 315.56521739 275.86956522 315.56521739 273 317 C270.0851463 317.15720097 267.19060364 317.25855654 264.2734375 317.31640625 C263.41062164 317.33718735 262.54780579 317.35796844 261.65884399 317.37937927 C258.89764507 317.44486034 256.13634962 317.50375298 253.375 317.5625 C251.50519828 317.6056866 249.63540638 317.64930093 247.765625 317.69335938 C243.17718272 317.80054024 238.58864317 317.90181175 234 318 C234.01571045 319.17506104 234.0314209 320.35012207 234.04760742 321.56079102 C234.10212276 325.94223104 234.13642841 330.32364137 234.16479492 334.70532227 C234.17983246 336.59762625 234.20026785 338.48989566 234.22631836 340.38208008 C234.26292399 343.11027586 234.2797769 345.83800871 234.29296875 348.56640625 C234.30845261 349.40522842 234.32393646 350.2440506 234.33988953 351.10829163 C234.34223544 359.39378448 231.71091963 365.01713182 226 371 C221.18337642 374.40688009 217.2244245 375.11357889 211.40527344 375.20532227 C210.28441345 375.22526749 209.16355347 375.24521271 208.00872803 375.26576233 C206.20229828 375.29083107 206.20229828 375.29083107 204.359375 375.31640625 C203.12205627 375.33718735 201.88473755 375.35796844 200.60992432 375.37937927 C197.32861309 375.43365872 194.04727267 375.48391779 190.76586914 375.53222656 C187.41416896 375.58256092 184.0625628 375.6382636 180.7109375 375.69335938 C174.14069536 375.80044509 167.57038702 375.90223036 161 376 C159.75938956 378.48122089 159.63916122 380.52831743 159.3515625 383.29296875 C159.17669312 384.93531494 159.17669312 384.93531494 158.99829102 386.61083984 C158.87510498 387.7911377 158.75191895 388.97143555 158.625 390.1875 C158.35667127 392.64205884 158.08711739 395.09648402 157.81640625 397.55078125 C157.41740047 401.18234626 157.01984449 404.81396784 156.63232422 408.44677734 C156.29234854 411.59166932 155.93031111 414.7332588 155.5625 417.875 C155.46469238 418.8239917 155.36688477 419.7729834 155.26611328 420.75073242 C155.15895996 421.6347876 155.05180664 422.51884277 154.94140625 423.4296875 C154.85576416 424.19522949 154.77012207 424.96077148 154.68188477 425.74951172 C153.71868993 428.92843403 152.34242437 430.6426519 150 433 C146.90620422 433.60800171 146.90620422 433.60800171 143.2277832 433.58349609 C142.21982193 433.58700073 142.21982193 433.58700073 141.1914978 433.59057617 C138.97712724 433.59218728 136.76485505 433.55820626 134.55078125 433.5234375 C133.01190442 433.5166474 131.47301718 433.51192561 129.93412781 433.50918579 C126.71350824 433.49851647 123.49358429 433.47183691 120.27319336 433.43212891 C116.13686403 433.38113362 112.00093355 433.35609825 107.86433125 433.34119225 C103.92642551 433.32643402 99.98861434 433.30119167 96.05078125 433.2734375 C95.29547937 433.26852673 94.5401775 433.26361595 93.76198769 433.25855637 C91.63589684 433.24234757 89.51002319 433.21894701 87.3840332 433.19287109 C85.56679497 433.17358047 85.56679497 433.17358047 83.71284485 433.15390015 C81 433 81 433 80 432 C79.9010706 429.83519203 79.870289 427.66706215 79.875 425.5 C79.87242187 424.3140625 79.86984375 423.128125 79.8671875 421.90625 C80 419 80 419 81 418 C82.77903357 417.87677242 84.56286203 417.82210981 86.34594727 417.79467773 C87.4870546 417.77473251 88.62816193 417.75478729 89.80384827 417.73423767 C91.66631447 417.70916893 91.66631447 417.70916893 93.56640625 417.68359375 C94.83016586 417.66281265 96.09392548 417.64203156 97.39598083 417.62062073 C100.76118633 417.56616286 104.12640173 417.5159572 107.49169922 417.46777344 C110.92355901 417.41760241 114.35532831 417.36189345 117.78710938 417.30664062 C124.52466761 417.19929809 131.26229336 417.09755675 138 417 C139.56835751 408.08976887 141.06054016 399.1930929 142.0625 390.19921875 C142.14169678 389.49386993 142.22089355 388.78852112 142.30249023 388.0617981 C142.61981151 385.20455576 142.931219 382.34684642 143.22949219 379.48754883 C143.45488492 377.34845764 143.69512126 375.21144243 143.9375 373.07421875 C144.07027344 371.83244873 144.20304687 370.59067871 144.33984375 369.3112793 C145.0193329 365.90302804 145.95181328 363.78641944 148 361 C150.72433168 359.63783416 152.91288152 359.84510213 155.96264648 359.81054688 C157.21411972 359.79382935 158.46559296 359.77711182 159.75498962 359.7598877 C160.42558851 359.75320572 161.0961874 359.74652374 161.78710747 359.73963928 C163.88428152 359.71861781 165.98130132 359.69159399 168.0783844 359.66296387 C172.5313637 359.60325127 176.98441478 359.55111197 181.4375 359.5 C186.59366441 359.44076723 191.74975287 359.37844968 196.90577888 359.30812073 C198.97251576 359.28155309 201.0392603 359.26073324 203.10606384 359.2401123 C204.36068924 359.22339478 205.61531464 359.20667725 206.90795898 359.18945312 C208.56769997 359.17066101 208.56769997 359.17066101 210.26097107 359.15148926 C213.09250165 359.11547491 213.09250165 359.11547491 216 358 C217.70494489 354.59011023 217.22332691 350.68894773 217.28125 346.93359375 C217.30886414 345.57150536 217.30886414 345.57150536 217.33703613 344.18190002 C217.39588019 341.26716706 217.44857944 338.35237278 217.5 335.4375 C217.55163501 332.54762853 217.60476829 329.65782889 217.66296387 326.76808167 C217.69916146 324.96943951 217.73168901 323.17071832 217.7598877 321.37193298 C217.8423104 317.26134862 217.99966132 313.1613702 218.33007812 309.06274414 C218.3855481 308.35243546 218.44101807 307.64212677 218.49816895 306.91029358 C219.1367452 304.47945931 220.01603486 303.51880635 222 302 C224.50728032 301.6692937 226.78137387 301.5117282 229.29296875 301.48828125 C230.35201164 301.46135445 230.35201164 301.46135445 231.43244934 301.43388367 C233.68407241 301.37976822 235.93548343 301.34588278 238.1875 301.3125 C239.71552431 301.27932781 241.24352063 301.24483823 242.77148438 301.20898438 C246.51416989 301.12404175 250.25679241 301.05723752 254 301 C250.27759852 291.41184213 244.47903405 282.64852305 238.91015625 274.03515625 C236.09427437 269.56084087 233.44168345 264.99393493 230.78198242 260.42553711 C228.77366234 256.98418694 226.74614745 253.56365031 224.6171875 250.1953125 C224.24843506 249.61056152 223.87968262 249.02581055 223.49975586 248.42333984 C222.50495402 246.8562583 221.50085452 245.29508992 220.49609375 243.734375 C218.10940874 239.37228752 217.87584774 235.14729801 217.67578125 230.23828125 C216.48041736 206.36565164 211.01725435 185.40788933 195 167 C194.32324219 166.19175781 193.64648438 165.38351563 192.94921875 164.55078125 C175.87782504 144.75039032 152.88097302 132.97546978 127 130 C111.72911882 128.97957505 96.29706857 130.28117257 82 136 C81.67 140.29 81.34 144.58 81 149 C83.89241455 148.98428955 83.89241455 148.98428955 86.84326172 148.96826172 C93.20551692 148.93604611 99.56775285 148.9130462 105.93006706 148.89637566 C109.78854797 148.88592657 113.64694085 148.871747 117.50537109 148.84912109 C121.22712192 148.8274326 124.94878794 148.81543986 128.67059708 148.81024551 C130.09241191 148.80654255 131.51422197 148.79931181 132.93600082 148.78853989 C134.92327114 148.77407881 136.91062631 148.77318354 138.89794922 148.77294922 C140.03046112 148.768508 141.16297302 148.76406677 142.32980347 148.75949097 C145 149 145 149 147 151 C146.98210269 153.52650337 146.85147501 155.92903058 146.625 158.4375 C146.52782474 159.89447672 146.43147341 161.35150862 146.3359375 162.80859375 C146.15440965 165.31108482 145.89494306 167.7345083 145.5390625 170.22265625 C145.23451348 173.1487962 145.13284928 175.18176017 146 178 C149.28007727 181.27417785 153.10219579 183.52708845 157 186 C167.22032063 194.14403833 174.47762862 207.02999285 176 220 C177.27841244 237.93395569 174.57776934 253.58491895 162.9453125 267.8359375 C153.43458917 278.41613976 140.07216036 287.13582975 125.52734375 288.17700195 C98.12753294 288.8253195 98.12753294 288.8253195 88.125 281.3125 C84.38495225 278.54486467 82.64182106 278.07033062 78 278 C74.77997695 279.22725268 71.93057379 280.95035233 69 282.75 C67.46018722 283.66458679 65.91854381 284.57609922 64.375 285.484375 C63.64152344 285.91814453 62.90804687 286.35191406 62.15234375 286.79882812 C59.18487091 288.45490417 56.15457891 289.74152437 53 291 C53 294.3 53 297.6 53 301 C53.71285156 301.1959375 54.42570313 301.391875 55.16015625 301.59375 C62.35907891 303.84159664 66.89758755 306.57727263 71 313 C73.83239241 318.80880478 73.8330886 324.6730298 73 331 C70.27464786 337.99472507 64.73202717 342.86798736 58 346 C54.4375 346.375 54.4375 346.375 52 346 C52.33 347.98 52.66 349.96 53 352 C53.71285156 352.1959375 54.42570313 352.391875 55.16015625 352.59375 C62.35907891 354.84159664 66.89758755 357.57727263 71 364 C73.92112298 370.01928372 74.16536671 376.96094493 72.3125 383.3828125 C69.55346039 389.42970764 65.22248022 393.25979523 59.0625 395.75 C56.23737685 396.75782382 54.59468934 397 51.5 397 C46.39762972 398.45782008 44.85515303 401.79128213 41.96875 406.08203125 C32.59788832 419.97098695 19.75676475 429.21751434 3.23828125 432.55859375 C-13.99107081 434.90710615 -30.58969184 431.51686326 -44.7265625 420.96484375 C-51.22600697 415.39809901 -56.53238052 408.99296104 -60.3359375 401.296875 C-62.53359007 398.2634954 -64.04982413 398.13344932 -67.6875 397.5 C-75.5350647 395.8109232 -81.51735228 392.89638111 -86 386 C-88.83726795 379.99769307 -88.99294105 373.28981563 -87.5 366.83984375 C-85.8889138 362.67481978 -83.31140616 359.90757614 -80 357 C-79.1028125 356.1646875 -79.1028125 356.1646875 -78.1875 355.3125 C-74.9502563 353.37015378 -71.68341508 352.79807327 -68 352 C-67.67 350.02 -67.34 348.04 -67 346 C-67.78375 346.12375 -68.5675 346.2475 -69.375 346.375 C-75.88216103 345.70184541 -81.10133645 342.04106331 -85.5 337.3125 C-88.55571198 330.56446939 -89.98805877 323.37913562 -87.94921875 316.1328125 C-85.08759483 309.70299084 -80.20045113 305.55539837 -73.89453125 302.69140625 C-72 302 -72 302 -68 301 C-67.67 297.7 -67.34 294.4 -67 291 C-68.2375 290.62875 -68.2375 290.62875 -69.5 290.25 C-82.10759943 285.74728592 -93.46633265 278.13068459 -104 270 C-105.01191406 269.22398437 -106.02382812 268.44796875 -107.06640625 267.6484375 C-112.69925917 263.18813764 -117.4642336 258.55138366 -122 253 C-122.75796875 252.14019531 -123.5159375 251.28039062 -124.296875 250.39453125 C-142.75362726 229.15780233 -155.86954174 201.88912723 -160 174 C-160.17055908 172.94264648 -160.34111816 171.88529297 -160.5168457 170.79589844 C-161.01618401 166.87285047 -161.17813135 163.02141118 -161.203125 159.07421875 C-161.21013931 158.3333754 -161.21715363 157.59253204 -161.22438049 156.82923889 C-161.24180997 154.44859696 -161.24823337 152.06820341 -161.25 149.6875 C-161.25067474 148.87631714 -161.25134949 148.06513428 -161.25204468 147.22937012 C-161.23658654 135.56150709 -160.95044426 124.35150843 -158 113 C-157.82839355 112.33774414 -157.65678711 111.67548828 -157.47998047 110.99316406 C-150.43318824 84.58186236 -136.65883193 61.78656353 -118 42 C-117.37867188 41.32582031 -116.75734375 40.65164062 -116.1171875 39.95703125 C-91.30487664 13.95082258 -55.97898953 0.37058697 -20.875 -3.375 C-19.59641113 -3.52050293 -19.59641113 -3.52050293 -18.29199219 -3.66894531 C-12.13588578 -4.236941 -4.6377234 -4.6377234 0 0 Z M-58 151 C-58.12128557 152.60111972 -58.17964479 154.20709808 -58.2109375 155.8125 C-58.23929687 156.80636719 -58.26765625 157.80023438 -58.296875 158.82421875 C-58.34818561 160.90999496 -58.39267216 162.99595239 -58.4296875 165.08203125 C-58.67433057 173.02273744 -59.79564814 179.56380445 -64.125 186.3125 C-68.82657425 190.70744984 -73.96609283 193.13870873 -80.4375 193.5625 C-86.54261059 193.25243309 -92.0935366 190.53296927 -96.671875 186.54296875 C-101.03400898 181.68047234 -102.21725163 176.30886412 -102.4140625 169.9453125 C-102.44967285 168.94516113 -102.4852832 167.94500977 -102.52197266 166.91455078 C-102.55597168 165.66399902 -102.5899707 164.41344727 -102.625 163.125 C-102.74875 159.12375 -102.8725 155.1225 -103 151 C-117.19 151 -131.38 151 -146 151 C-146 184.28202377 -132.25505145 215.87306062 -111 241 C-110.14546643 242.08304394 -109.29122346 243.16631736 -108.4375 244.25 C-105.23285759 247.865494 -101.70313818 250.90748567 -98 254 C-97.29359375 254.61746094 -96.5871875 255.23492187 -95.859375 255.87109375 C-84.98610823 265.06159304 -72.29306774 271.69126113 -59.35717773 277.48828125 C-54.18535959 279.81464041 -54.18535959 279.81464041 -52 282 C-51.5859375 285.08203125 -51.5859375 285.08203125 -51.375 288.8125 C-51.26285156 290.64748047 -51.26285156 290.64748047 -51.1484375 292.51953125 C-51.05798892 294.64031232 -51.01034106 296.76420412 -51.0390625 298.88671875 C-51.24473908 300.98656688 -51.24473908 300.98656688 -50 302 C-46.98191937 302.101137 -43.98719487 302.13968909 -40.96875 302.1328125 C-39.60937317 302.13424759 -39.60937317 302.13424759 -38.22253418 302.13571167 C-36.30248953 302.13639353 -34.38244259 302.13453882 -32.46240234 302.13037109 C-29.51264296 302.12502292 -26.56303586 302.13031588 -23.61328125 302.13671875 C-21.75260383 302.13605797 -19.8919265 302.13477681 -18.03125 302.1328125 C-16.69846008 302.13584885 -16.69846008 302.13584885 -15.33874512 302.13894653 C-11.35171142 302.525828 -11.35171142 302.525828 -8 301 C-7.88161868 299.04227251 -7.83260332 297.08032001 -7.81054688 295.11914062 C-7.79382935 293.86113647 -7.77711182 292.60313232 -7.7598877 291.30700684 C-7.74986473 290.29249702 -7.74986473 290.29249702 -7.73963928 289.25749207 C-7.71867141 287.14834451 -7.69164481 285.03935368 -7.66296387 282.93029785 C-7.60317852 278.45359156 -7.55105631 273.97681325 -7.5 269.5 C-7.4408602 264.31439553 -7.37863758 259.12886848 -7.30812073 253.94340515 C-7.28145744 251.85995952 -7.26069661 249.77650648 -7.2401123 247.69299316 C-7.22339478 246.43498901 -7.20667725 245.17698486 -7.18945312 243.88085938 C-7.17692505 242.76690796 -7.16439697 241.65295654 -7.15148926 240.50524902 C-7 238 -7 238 -6 237 C-4.10575395 236.91484201 -2.20865733 236.8918151 -0.3125 236.89453125 C0.86183594 236.87970703 2.03617188 236.86488281 3.24609375 236.84960938 C5.71733266 236.82517985 8.18883917 236.81947824 10.66015625 236.83398438 C18.69289253 236.68976223 23.99984697 235.51423386 30 230 C35.07792852 224.46316098 35.67284499 219.42050717 35.35546875 211.9921875 C34.59806916 205.61671401 31.65542424 202.20123651 27 198 C26.360625 197.4225 25.72125 196.845 25.0625 196.25 C20.82500926 193.6818238 15.78010581 193.87742214 10.9453125 193.90234375 C9.44508545 193.90609009 9.44508545 193.90609009 7.91455078 193.90991211 C6.66399902 193.91901611 5.41344727 193.92812012 4.125 193.9375 C0.12375 193.958125 -3.8775 193.97875 -8 194 C-8 179.81 -8 165.62 -8 151 C-14.95998906 150.83458893 -21.9199051 150.67221423 -28.88012695 150.51782227 C-31.24996064 150.46431356 -33.61975379 150.40897769 -35.98950195 150.35180664 C-39.38744357 150.27014242 -42.78547482 150.19496008 -46.18359375 150.12109375 C-47.25024765 150.09405869 -48.31690155 150.06702362 -49.4158783 150.03916931 C-50.39681961 150.01907303 -51.37776093 149.99897675 -52.38842773 149.97827148 C-53.25668686 149.95828598 -54.12494598 149.93830048 -55.01951599 149.91770935 C-57.00189538 149.7761815 -57.00189538 149.7761815 -58 151 Z M134 209 C133.71914551 209.56283691 133.43829102 210.12567383 133.14892578 210.70556641 C125.68875813 225.55629365 118.02891654 239.20924239 106.3984375 251.23046875 C104.68998135 253.01638472 104.68998135 253.01638472 105 256 C111.22184279 259.1109214 122.52870326 257.99243484 129.046875 256.12890625 C131.31249433 254.93750298 133.0953621 253.70551666 135 252 C135.5671875 251.49210937 136.134375 250.98421875 136.71875 250.4609375 C142.47457947 244.50760407 145.17305165 237.19946668 145.5625 229 C145.3055754 221.61579678 142.4895783 215.98749396 137.8125 210.375 C136.11360863 208.79853784 136.11360863 208.79853784 134 209 Z M-51 347 C-51.04063832 348.66617115 -51.042721 350.33388095 -51 352 C-47.96624375 353.51687813 -44.82013684 353.13856373 -41.49267578 353.12939453 C-40.71852325 353.13114685 -39.94437073 353.13289917 -39.14675903 353.13470459 C-36.57958759 353.13911696 -34.01248469 353.1361867 -31.4453125 353.1328125 C-29.66413357 353.13348585 -27.88295474 353.13445614 -26.10177612 353.13571167 C-22.36422859 353.13718792 -18.62670492 353.13503692 -14.88916016 353.13037109 C-10.09842586 353.12468211 -5.30774768 353.127948 -0.51701546 353.13394356 C3.16326317 353.13755817 6.8435285 353.13640629 10.52380753 353.13381577 C12.29005057 353.13314856 14.05629483 353.13396772 15.82253647 353.13629532 C18.293019 353.13883565 20.76341093 353.13496133 23.23388672 353.12939453 C23.96442261 353.13141876 24.6949585 353.13344299 25.44763184 353.13552856 C28.77447911 353.12164584 31.81907463 353.03309093 35 352 C35.38218767 350.34385343 35.71395102 348.67542976 36 347 C34.22529753 345.22529753 31.85610047 345.87379139 29.49247742 345.86447144 C28.30800774 345.86750778 28.30800774 345.86750778 27.09960938 345.87060547 C26.27201614 345.86885315 25.44442291 345.86710083 24.5917511 345.86529541 C21.84239638 345.86087607 19.09310543 345.86381517 16.34375 345.8671875 C14.44185371 345.86651448 12.53995751 345.86554448 10.63806152 345.86428833 C6.64655745 345.86281125 2.65507571 345.86496625 -1.33642578 345.86962891 C-6.46490507 345.8753262 -11.59333202 345.87204725 -16.72180939 345.86605644 C-20.65074054 345.86245111 -24.57965918 345.86358928 -28.5085907 345.86618423 C-30.40012112 345.86685358 -32.29165265 345.86602481 -34.18318176 345.86370468 C-36.82202177 345.86117862 -39.46077581 345.86501809 -42.09960938 345.87060547 C-42.88925583 345.86858124 -43.67890228 345.86655701 -44.49247742 345.86447144 C-48.040699 345.54954446 -48.040699 345.54954446 -51 347 Z M-43 398 C-40.52685584 405.28063358 -35.18408818 409.36568925 -28.46875 412.8125 C-16.92715506 418.00015914 -5.64815864 420.19596657 6.62890625 415.97265625 C14.59946397 412.70302055 23.45284099 407.98818639 27.5 400.0625 C27.665 399.381875 27.83 398.70125 28 398 C24.24242837 397.12791141 20.76600319 396.87350495 16.91210938 396.87060547 C15.70735962 396.86745331 14.50260986 396.86430115 13.26135254 396.86105347 C11.9685437 396.8630777 10.67573486 396.86510193 9.34375 396.8671875 C7.99523908 396.86651325 6.64672828 396.86554221 5.29821777 396.86428833 C2.47728311 396.86281707 -0.34361981 396.86494753 -3.16455078 396.86962891 C-6.7724485 396.87532585 -10.38027182 396.87204379 -13.98816681 396.86605644 C-16.77118486 396.8624354 -19.55418539 396.86359651 -22.33720398 396.86618423 C-24.31192066 396.86717159 -26.28663803 396.8641454 -28.26135254 396.86105347 C-30.06847717 396.86578171 -30.06847717 396.86578171 -31.91210938 396.87060547 C-32.96958374 396.87140106 -34.02705811 396.87219666 -35.11657715 396.87301636 C-37.85149436 396.99345993 -40.33768173 397.38210695 -43 398 Z " fill="#DFECFE" transform="translate(210,27)"/>
<path d="M0 0 C2.27734375 0.03125 2.27734375 0.03125 5 1 C6.45596346 3.54263889 7.51935498 5.79576322 8.5625 8.5 C8.87074707 9.22598389 9.17899414 9.95196777 9.49658203 10.69995117 C10.79154223 13.77333711 11.92921437 16.71648296 12.73828125 19.95703125 C13.47575805 22.68524296 13.93334965 24.04556596 16 26 C20.9000365 27.54122623 25.73203195 28.21636345 30.82763672 28.75585938 C33.92894515 29.10439932 36.98990925 29.64549353 40.0625 30.1875 C41.70818974 30.45920448 43.35396131 30.73041756 45 31 C44.51788058 35.41623303 43.26010689 37.13073561 39.9296875 40.00390625 C39.11628906 40.74576172 38.30289063 41.48761719 37.46484375 42.25195312 C35.74740823 43.78417501 34.01299401 45.29758881 32.26171875 46.79101562 C27.53007299 51.09252932 27.53007299 51.09252932 25.61401367 56.98608398 C25.84672105 60.08131099 26.32523757 62.97215977 27 66 C27.13148438 66.7520874 27.26296875 67.5041748 27.3984375 68.27905273 C27.7356896 70.17493764 28.14710597 72.05718983 28.5625 73.9375 C29.46765138 78.05615533 30.18427471 81.77770566 30 86 C29.01 86.495 29.01 86.495 28 87 C25.66503906 85.90429687 25.66503906 85.90429687 22.765625 84.21875 C21.71632813 83.62449219 20.66703125 83.03023438 19.5859375 82.41796875 C17.37371206 81.14606864 15.16531636 79.86748258 12.9609375 78.58203125 C11.90648437 77.98777344 10.85203125 77.39351563 9.765625 76.78125 C8.32364746 75.9469043 8.32364746 75.9469043 6.85253906 75.09570312 C3.36615378 73.75653014 1.5666794 73.99684338 -2 75 C-4.27051641 76.00420556 -4.27051641 76.00420556 -6.34765625 77.3203125 C-7.11787109 77.77277344 -7.88808594 78.22523437 -8.68164062 78.69140625 C-10.27520452 79.65094349 -11.86634116 80.61452286 -13.45507812 81.58203125 C-19.36614496 85.04047606 -19.36614496 85.04047606 -23.05859375 84.8046875 C-23.69925781 84.53914063 -24.33992188 84.27359375 -25 84 C-24.69088746 81.08293797 -24.37784575 78.1663891 -24.0625 75.25 C-23.97548828 74.425 -23.88847656 73.6 -23.79882812 72.75 C-23.71181641 71.95078125 -23.62480469 71.1515625 -23.53515625 70.328125 C-23.456604 69.5949707 -23.37805176 68.86181641 -23.29711914 68.10644531 C-23.00212239 66.01504682 -22.53009272 64.04289578 -22 62 C-21.40153846 58.69960853 -21.11906223 57.13252506 -22 54 C-24.79795822 50.33208839 -28.14352488 47.33264282 -31.5625 44.25 C-33.36615319 42.6001467 -35.15973616 40.93919376 -36.94140625 39.265625 C-37.74263916 38.54149414 -38.54387207 37.81736328 -39.36938477 37.07128906 C-41 35 -41 35 -40.75366211 32.73339844 C-40.50495361 32.16137695 -40.25624512 31.58935547 -40 31 C-39.25838623 30.88406494 -38.51677246 30.76812988 -37.75268555 30.64868164 C-34.39720196 30.12260449 -31.04235041 29.59259938 -27.6875 29.0625 C-26.52025391 28.88009766 -25.35300781 28.69769531 -24.15039062 28.50976562 C-23.03212891 28.33251953 -21.91386719 28.15527344 -20.76171875 27.97265625 C-19.73006592 27.81031494 -18.69841309 27.64797363 -17.63549805 27.48071289 C-14.90509209 27.04662212 -14.90509209 27.04662212 -12 26 C-10.68662778 23.99026031 -10.68662778 23.99026031 -9.58984375 21.484375 C-8.94112305 20.10185547 -8.94112305 20.10185547 -8.27929688 18.69140625 C-7.83650391 17.72074219 -7.39371094 16.75007813 -6.9375 15.75 C-6.49083984 14.79480469 -6.04417969 13.83960938 -5.58398438 12.85546875 C-3.60830853 8.6087993 -1.71199849 4.36064971 0 0 Z " fill="#E0ECFD" transform="translate(266,25)"/>
<path d="M0 0 C1.90072266 0.02126953 1.90072266 0.02126953 3.83984375 0.04296875 C5.74443359 0.05263672 5.74443359 0.05263672 7.6875 0.0625 C10.77734375 0.23046875 10.77734375 0.23046875 11.77734375 1.23046875 C11.9453125 3.12109375 11.9453125 3.12109375 11.96484375 5.48046875 C11.97902344 6.24875 11.99320312 7.01703125 12.0078125 7.80859375 C11.77734375 10.23046875 11.77734375 10.23046875 9.77734375 15.23046875 C5.48734375 15.23046875 1.19734375 15.23046875 -3.22265625 15.23046875 C-5.33584707 9.94749171 -5.58221741 7.7137764 -5.22265625 2.23046875 C-3.22265625 0.23046875 -3.22265625 0.23046875 0 0 Z " fill="#E2EDFC" transform="translate(265.22265625,444.76953125)"/>
</svg>
